<svg width="42" height="42" viewBox="0 0 42 42" fill="none" xmlns="http://www.w3.org/2000/svg">
<path id="Primary" d="M30.7999 17.6749L31.3302 17.1445L31.2493 17.0636C31.8237 16.0299 31.6595 14.7023 30.7945 13.828C29.7365 12.7586 28.0125 12.7627 26.9501 13.8251L26.9499 13.8254L18.3748 22.4082L15.0527 19.0862C15.0522 19.0857 15.0517 19.0852 15.0512 19.0846C13.9895 18.0133 12.2688 18.0342 11.2112 19.0805C10.1418 20.1385 10.1459 21.8625 11.2083 22.9249L16.4555 28.172C16.456 28.1725 16.4565 28.173 16.457 28.1736C17.5152 29.2414 19.238 29.2368 20.2999 28.1749L30.7999 17.6749ZM35.3189 35.3189C31.5213 39.1165 26.3706 41.25 21 41.25C15.6294 41.25 10.4787 39.1165 6.68109 35.3189C2.88348 31.5213 0.75 26.3706 0.75 21C0.75 15.6294 2.88348 10.4787 6.68109 6.68109C10.4787 2.88348 15.6294 0.75 21 0.75C26.3706 0.75 31.5213 2.88348 35.3189 6.68109C39.1165 10.4787 41.25 15.6294 41.25 21C41.25 26.3706 39.1165 31.5213 35.3189 35.3189Z" fill="#53EA87" stroke="#1E1E1E" stroke-width="1.5"/>
</svg>
